PathFileType	4	(X/Y/Z)	C:\Users\WrightLab\Desktop\Jo\P3_19.trc
DataRate	CameraRate	NumFrames	NumMarkers	Units	OrigDataRate	OrigDataStartFrame	OrigNumFrames
100.00	100.00	       65	19	mm	100.00	640	       731
Frame#	Time	Headset_Front			Headset_Back			Headset_Left			Headset_Right			Left_Shoulder			Right_Shoulder			Sternum			C7			Left Elbow			Right Elbow			Left Wrist			Right Wrist			Left ASIS			Right ASIS			S2			Left Knee			Right Knee			Left Ankle			Right Ankle			
		X1	Y1	Z1	X2	Y2	Z2	X3	Y3	Z3	X4	Y4	Z4	X5	Y5	Z5	X6	Y6	Z6	X7	Y7	Z7	X8	Y8	Z8	X9	Y9	Z9	X10	Y10	Z10	X11	Y11	Z11	X12	Y12	Z12	X13	Y13	Z13	X14	Y14	Z14	X15	Y15	Z15	X16	Y16	Z16	X17	Y17	Z17	X18	Y18	Z18	X19	Y19	Z19	

640	6.390																															-414.47366	875.52594	2520.03906													-256.03632	503.88779	2586.81812				-202.58031	179.84125	2650.44922				
641	6.400																															-411.55618	875.73944	2516.30518													-254.91484	504.24228	2587.03735				-202.54555	179.94240	2650.51147				
642	6.410																															-407.69998	876.31403	2511.53149													-254.19185	504.38724	2587.22998				-202.48557	180.09122	2650.63330				
643	6.420																															-403.19531	876.94135	2507.91382													-253.18542	504.80798	2587.12549				-202.41158	180.27272	2650.78442				
644	6.430																															-399.41861	877.93976	2503.47974													-252.22591	505.42679	2587.09937				-202.26663	180.55632	2650.40405				
645	6.440																															-395.55072	879.06805	2499.10913													-251.40701	506.08749	2587.06958				-202.33482	180.96068	2650.17383				
646	6.450																															-391.07565	880.38397	2494.91504																			-202.31821	181.00688	2650.20483				
647	6.460																															-386.37271	881.71082	2491.06348																			-202.33478	181.02359	2650.13916				
648	6.470																															-381.47882	883.24878	2487.63672																			-202.64325	181.55586	2650.14160				
649	6.480																															-376.87036	884.73340	2484.11450																			-203.06412	182.02827	2650.46143				
650	6.490																															-372.23615	886.20984	2480.29688																			-203.50877	182.73024	2650.70679				
651	6.500																															-367.67477	887.88574	2476.84619																			-203.85509	183.44598	2650.87769				
652	6.510																															-363.32208	889.58148	2472.86548																			-204.05336	184.12869	2650.82202				
653	6.520																															-358.42337	891.00043	2469.57739																			-204.73500	185.01108	2651.02295				
654	6.530																															-353.25592	892.33862	2465.58740																			-205.93062	185.61975	2650.59814				
655	6.540																																																				-208.03769	186.86630	2650.18408				
656	6.550																																																				-209.59016	188.02245	2650.51001				
657	6.560																																																				-211.75917	189.66325	2650.40063				
658	6.570																																																				-214.54498	189.86348	2650.24072				
659	6.580																																																				-217.10173	191.72081	2650.67798				
660	6.590																																																				-220.38901	192.59409	2650.14111				
661	6.600																																																				-223.20061	194.40857	2651.12769				
662	6.610																																																				-226.38643	195.43930	2651.79175				
663	6.620																																																				-228.21126	196.71497	2651.83936				
664	6.630																																																				-230.81517	198.90028	2653.35840				
665	6.640																																																				-233.31697	200.78758	2654.74341				
666	6.650																																																				-234.78471	201.45653	2654.95264				
667	6.660																																																				-235.76451	203.50139	2657.00806				
668	6.670																																																				-236.66260	205.02875	2658.67554				
669	6.680																																																				-237.85008	205.98901	2659.84424				
670	6.690																																																				-238.80000	206.77863	2660.72437				
671	6.700																																																				-239.81964	206.98755	2661.75049				
672	6.710																																																				-241.02821	207.12515	2662.38501				
673	6.720																																																				-241.50484	206.49095	2664.11157				
674	6.730																																																				-242.53209	206.01695	2664.63940				
675	6.740																																																				-243.13393	205.30945	2664.40381				
676	6.750																																																				-243.60152	203.77148	2664.74609				
677	6.760																																																				-243.93657	202.00713	2664.31665				
678	6.770																																																				-244.48268	200.03506	2663.92432				
679	6.780																																																				-244.41824	198.27547	2663.78760				
680	6.790																																																				-244.46834	196.61185	2662.62939				
681	6.800																																																				-244.47684	194.63699	2662.39331				
682	6.810																																																				-244.64665	193.15562	2661.49780				
683	6.820																																																				-244.60301	191.55847	2660.64307				
684	6.830																																																				-244.39099	189.51961	2660.34497				
685	6.840																																																				-242.99182	188.19215	2657.37280				
686	6.850																																																				-242.53528	187.26280	2657.31299				
687	6.860																																																				-241.77415	185.76414	2658.03613				
688	6.870																																																				-241.12881	184.96291	2658.46387				
689	6.880																																																				-239.43994	184.18842	2657.86890				
690	6.890																																																				-238.23167	183.89688	2658.32129				
691	6.900																																																				-237.71284	183.82347	2659.32568				
692	6.910																																																				-237.66293	183.80424	2660.02100				
693	6.920																																																				-237.51926	183.98755	2660.54395				
694	6.930																																																				-237.54103	184.06676	2661.00732				
695	6.940																																																				-237.69569	184.00699	2661.42847				
696	6.950																																																				-238.07793	183.80821	2661.57593				
697	6.960																																																				-238.28748	183.57697	2661.60913				
698	6.970																																																				-238.93785	183.64014	2662.04565				
699	6.980																																																				-239.76251	183.55022	2662.42773				
700	6.990																																																				-240.52341	183.15103	2662.49609				
701	7.000																																																				-240.71120	183.30666	2663.21875				
702	7.010																																																				-241.20555	183.53883	2664.44019				
703	7.020																																																				-241.56377	183.13734	2665.15137				
704	7.030																																																				-241.70670	183.26466	2666.11719				
